<!DOCTYPE svg PUBLIC "-//W3C//DTD SVG 1.1//EN" "http://www.w3.org/Graphics/SVG/1.1/DTD/svg11.dtd">
<!-- Uploaded to: SVG Repo, www.svgrepo.com, Transformed by: SVG Repo Mixer Tools -->
<svg fill="#91d9fb" width="800px" height="800px" viewBox="-300 -300 1600.00 1600.00" xmlns="http://www.w3.org/2000/svg">
<g id="SVGRepo_bgCarrier" stroke-width="0">
<path transform="translate(-300, -300), scale(100)" fill="#28a8e3" d="M9.166.33a2.25 2.25 0 00-2.332 0l-5.25 3.182A2.25 2.25 0 00.5 5.436v5.128a2.25 2.25 0 001.084 1.924l5.25 3.182a2.25 2.25 0 002.332 0l5.25-3.182a2.25 2.25 0 001.084-1.924V5.436a2.25 2.25 0 00-1.084-1.924L9.166.33z" strokewidth="0"/>
</g>
<g id="SVGRepo_tracerCarrier" stroke-linecap="round" stroke-linejoin="round"/>
<g id="SVGRepo_iconCarrier">
<path d="M500 69q-119 0-220 59-99 58-157 157-59 101-59 220t59 220q58 99 157 157 101 59 220 59t220-59q99-58 157-157 59-101 59-219.5T877 285q-58-99-157-157-101-59-220-59zm132 246q25 0 43 32t18 77-18 77-43.5 32-43-32-17.5-77 17.5-77 43.5-32zm-264 0q26 0 43.5 32t17.5 77-17.5 77-43 32-43-32-17.5-77 17.5-77 42.5-32zm405 349q-9 15-41 3-38 63-98 100-62 38-134 38t-134-38q-60-37-98-100-32 12-41-3-6-10 3-23 9-15 35-30t44-17 23 7q4 7-.5 17.5T314 640q32 44 80.5 70T500 736t105.5-26 80.5-70q-13-12-17.5-22t-.5-17q5-9 23-7t44 17 35 30q9 13 3 23z"/>
</g>
</svg>